<svg width="69" height="58" viewBox="0 0 69 58" fill="none" xmlns="http://www.w3.org/2000/svg">
<path opacity="0.5" d="M39.3333 43.5C39.3333 40.1167 39.3333 38.425 39.993 37.1321C40.5721 35.996 41.4959 35.0722 42.632 34.4931C43.9249 33.8333 45.6166 33.8333 48.9999 33.8333C52.3833 33.8333 54.0749 33.8333 55.3678 34.4931C56.504 35.0722 57.4277 35.996 58.0068 37.1321C58.6666 38.425 58.6666 40.1167 58.6666 43.5C58.6666 46.8833 58.6666 48.575 58.0068 49.8679C57.4277 51.0041 56.504 51.9278 55.3678 52.5069C54.0749 53.1667 52.3833 53.1667 48.9999 53.1667C45.6166 53.1667 43.9249 53.1667 42.632 52.5069C41.4959 51.9278 40.5721 51.0041 39.993 49.8679C39.3333 48.575 39.3333 46.8833 39.3333 43.5Z" fill="white"/>
<path opacity="0.5" d="M22.5559 46.548L22.1009 47.028C22.1009 47.028 21.0179 48.167 18.0629 45.056C15.1079 41.945 16.1909 40.806 16.1909 40.806L16.4779 40.503C17.1839 39.759 17.2509 38.565 16.6339 37.693L15.3739 35.91C14.6099 34.83 13.1349 34.688 12.2599 35.609L10.6909 37.26C10.2579 37.717 9.96786 38.308 10.0029 38.965C10.0929 40.645 10.8109 44.258 14.8149 48.475C19.0619 52.945 23.0469 53.123 24.6759 52.962C25.1919 52.912 25.6399 52.633 26.0009 52.253L27.4209 50.757C28.3809 49.747 28.1109 48.017 26.8829 47.311L24.9729 46.211C24.1669 45.748 23.1859 45.884 22.5559 46.547" fill="white"/>
<path d="M24.9999 43C26.0872 42.9998 27.1448 42.6452 28.0125 41.9899C28.8802 41.3345 29.5105 40.4142 29.8081 39.3684C30.1057 38.3226 30.0543 37.2083 29.6616 36.1944C29.2689 35.1804 28.5564 34.3221 27.6321 33.7495C26.7078 33.1769 25.622 32.9212 24.5392 33.0212C23.4565 33.1212 22.4359 33.5714 21.6321 34.3036C20.8282 35.0358 20.285 36.0101 20.0846 37.0788C19.8843 38.1475 20.0378 39.2524 20.5219 40.226C20.6131 40.4029 20.6369 40.6069 20.5889 40.8L20.2909 41.913C20.2614 42.0232 20.2614 42.1392 20.2909 42.2494C20.3205 42.3596 20.3785 42.4601 20.4591 42.5407C20.5398 42.6214 20.6403 42.6794 20.7505 42.709C20.8607 42.7385 20.9767 42.7385 21.0869 42.709L22.1999 42.411C22.393 42.3629 22.597 42.3868 22.7739 42.478C23.4656 42.8216 24.2275 43.0003 24.9999 43Z" fill="white"/>
<path opacity="0.3" fill-rule="evenodd" clip-rule="evenodd" d="M10.4998 9C10.4998 8.20435 10.8158 7.44129 11.3784 6.87868C11.941 6.31607 12.7041 6 13.4998 6H27.4998C28.2954 6 29.0585 6.31607 29.6211 6.87868C30.1837 7.44129 30.4998 8.20435 30.4998 9V19C30.4998 19.7956 30.1837 20.5587 29.6211 21.1213C29.0585 21.6839 28.2954 22 27.4998 22H15.8328L12.4998 24.5C11.6758 25.118 10.4998 24.53 10.4998 23.5V9Z" fill="white"/>
<path fill-rule="evenodd" clip-rule="evenodd" d="M16.4998 15C16.2345 15 15.9802 15.1054 15.7926 15.2929C15.6051 15.4804 15.4998 15.7348 15.4998 16C15.4998 16.2652 15.6051 16.5196 15.7926 16.7071C15.9802 16.8946 16.2345 17 16.4998 17H19.4998C19.765 17 20.0193 16.8946 20.2069 16.7071C20.3944 16.5196 20.4998 16.2652 20.4998 16C20.4998 15.7348 20.3944 15.4804 20.2069 15.2929C20.0193 15.1054 19.765 15 19.4998 15H16.4998ZM15.4998 12C15.4998 11.7348 15.6051 11.4804 15.7926 11.2929C15.9802 11.1054 16.2345 11 16.4998 11H24.4998C24.765 11 25.0193 11.1054 25.2069 11.2929C25.3944 11.4804 25.4998 11.7348 25.4998 12C25.4998 12.2652 25.3944 12.5196 25.2069 12.7071C25.0193 12.8946 24.765 13 24.4998 13H16.4998C16.2345 13 15.9802 12.8946 15.7926 12.7071C15.6051 12.5196 15.4998 12.2652 15.4998 12Z" fill="white"/>
<path d="M51.9998 5.99999C53.2958 5.99999 54.4958 6.40999 55.4768 7.10999L46.3428 16.243C46.2472 16.3352 46.1711 16.4456 46.1187 16.5676C46.0662 16.6896 46.0387 16.8208 46.0375 16.9536C46.0364 17.0864 46.0617 17.218 46.1119 17.3409C46.1622 17.4638 46.2365 17.5755 46.3304 17.6694C46.4243 17.7633 46.5359 17.8375 46.6588 17.8878C46.7817 17.9381 46.9134 17.9634 47.0462 17.9622C47.1789 17.9611 47.3102 17.9335 47.4322 17.8811C47.5542 17.8287 47.6645 17.7525 47.7568 17.657L56.8908 8.52299C57.6125 9.53872 58.0001 10.7539 57.9998 12V22C57.9998 22.5304 57.789 23.0391 57.414 23.4142C57.0389 23.7893 56.5302 24 55.9998 24H41.9998C41.4693 24 40.9606 23.7893 40.5855 23.4142C40.2105 23.0391 39.9998 22.5304 39.9998 22V7.99999C39.9998 7.46955 40.2105 6.96085 40.5855 6.58577C40.9606 6.2107 41.4693 5.99999 41.9998 5.99999H51.9998ZM58.6568 5.34299C58.8442 5.53052 58.9495 5.78482 58.9495 6.04999C58.9495 6.31515 58.8442 6.56946 58.6568 6.75699L56.8898 8.52299C56.5008 7.97588 56.0229 7.49791 55.4758 7.10899L57.2418 5.34299C57.4293 5.15552 57.6836 5.0502 57.9488 5.0502C58.2139 5.0502 58.4692 5.15552 58.6568 5.34299Z" fill="white"/>
</svg>
