<svg width="58" height="58" viewBox="0 0 58 58" fill="none" xmlns="http://www.w3.org/2000/svg">
<path d="M44.7084 24.65C44.7084 30.8609 39.6334 38.6425 29.8217 47.6325L29.0001 48.3575L28.1784 47.6084C18.3667 38.6425 13.2917 30.8609 13.2917 24.65C13.2917 15.37 20.1067 8.45837 29.0001 8.45837C37.8934 8.45837 44.7084 15.3459 44.7084 24.65Z" fill="white" fill-opacity="0.3"/>
<path d="M29.0001 26.5834C32.2142 26.5834 38.6667 28.2025 38.6667 31.4167V31.8034C36.3226 34.51 32.8667 36.25 29.0001 36.25C25.1334 36.25 21.6776 34.51 19.3334 31.8034V31.4167C19.3334 28.2025 25.7859 26.5834 29.0001 26.5834ZM29.0001 24.1667C26.3417 24.1667 24.1667 21.9917 24.1667 19.3334C24.1667 16.675 26.3417 14.5 29.0001 14.5C31.6584 14.5 33.8334 16.675 33.8334 19.3334C33.8334 21.9917 31.6584 24.1667 29.0001 24.1667ZM43.5001 24.65C43.5001 15.8775 37.0959 9.66671 29.0001 9.66671C20.9042 9.66671 14.5001 15.8775 14.5001 24.65C14.5001 30.305 19.2126 37.7967 29.0001 46.7384C38.7876 37.7967 43.5001 30.305 43.5001 24.65ZM29.0001 4.83337C39.1501 4.83337 48.3334 12.615 48.3334 24.65C48.3334 32.6734 41.8809 42.1709 29.0001 53.1667C16.1192 42.1709 9.66675 32.6734 9.66675 24.65C9.66675 12.615 18.8501 4.83337 29.0001 4.83337Z" fill="white"/>
</svg>
