<svg width="32" height="32" viewBox="0 0 32 32" fill="none" xmlns="http://www.w3.org/2000/svg">
<path d="M13.3334 8.00002C13.3334 5.0545 10.9456 2.66669 8.00008 2.66669C5.05456 2.66669 2.66675 5.0545 2.66675 8.00002C2.66675 10.9455 5.05456 13.3334 8.00008 13.3334C10.9456 13.3334 13.3334 10.9455 13.3334 8.00002Z" stroke="white" stroke-width="2"/>
<path d="M13.3334 24C13.3334 21.0545 10.9456 18.6666 8.00008 18.6666C5.05456 18.6666 2.66675 21.0545 2.66675 24C2.66675 26.9454 5.05456 29.3333 8.00008 29.3333C10.9456 29.3333 13.3334 26.9454 13.3334 24Z" stroke="white" stroke-width="2"/>
<path d="M29.3334 8.00002C29.3334 5.0545 26.9455 2.66669 24.0001 2.66669C21.0546 2.66669 18.6667 5.0545 18.6667 8.00002C18.6667 10.9455 21.0546 13.3334 24.0001 13.3334C26.9455 13.3334 29.3334 10.9455 29.3334 8.00002Z" stroke="white" stroke-width="2"/>
<path d="M29.3334 24C29.3334 21.0545 26.9455 18.6666 24.0001 18.6666C21.0546 18.6666 18.6667 21.0545 18.6667 24C18.6667 26.9454 21.0546 29.3333 24.0001 29.3333C26.9455 29.3333 29.3334 26.9454 29.3334 24Z" stroke="white" stroke-width="2"/>
</svg>
