<svg width="58" height="58" viewBox="0 0 58 58" fill="none" xmlns="http://www.w3.org/2000/svg">
<path fill-rule="evenodd" clip-rule="evenodd" d="M50.3392 25.8946L49.0874 30.5636C47.6253 36.0132 46.8955 38.7392 45.2401 40.5057C43.9338 41.9006 42.2435 42.8769 40.3826 43.3115C40.149 43.3663 39.9113 43.4082 39.6697 43.4372C37.4584 43.7102 34.759 42.9877 29.8483 41.673C24.3987 40.2109 21.6727 39.4811 19.9061 37.8257C18.5109 36.5188 17.5345 34.8275 17.1004 32.9657C16.5494 30.6071 17.2792 27.8835 18.7413 22.4339L19.9907 17.7649L20.5804 15.5778C21.68 11.5517 22.4195 9.33558 23.8381 7.82033C25.1446 6.42639 26.8349 5.45088 28.6956 5.01699C31.0542 4.46599 33.7802 5.19583 39.2322 6.65791C44.6794 8.11758 47.4054 8.84741 49.172 10.5004C50.5676 11.808 51.5441 13.5001 51.9777 15.3627C52.5287 17.7214 51.7989 20.445 50.3392 25.8946ZM26.7066 23.6954C26.7683 23.4655 26.8747 23.2499 27.0197 23.0611C27.1647 22.8722 27.3455 22.7138 27.5518 22.5949C27.758 22.476 27.9857 22.3988 28.2217 22.3679C28.4578 22.3369 28.6976 22.3528 28.9276 22.4146L40.6001 25.5442C40.8361 25.6001 41.0584 25.7029 41.254 25.8463C41.4496 25.9898 41.6143 26.1711 41.7386 26.3794C41.8628 26.5877 41.944 26.8188 41.9772 27.059C42.0105 27.2993 41.9952 27.5438 41.9323 27.778C41.8694 28.0122 41.7601 28.2315 41.6109 28.4227C41.4617 28.6139 41.2756 28.7732 41.0637 28.8913C40.8519 29.0093 40.6184 29.0835 40.3773 29.1097C40.1362 29.1358 39.8923 29.1133 39.66 29.0435L27.9875 25.9163C27.5236 25.7917 27.1282 25.4881 26.888 25.0721C26.6478 24.6561 26.5826 24.1594 26.7066 23.6954ZM24.8313 30.7013C24.9559 30.2374 25.2596 29.842 25.6755 29.6018C26.0915 29.3617 26.5858 29.2965 27.0498 29.4205L34.0533 31.2982C34.2904 31.353 34.5141 31.4549 34.711 31.5979C34.9079 31.741 35.074 31.9222 35.1993 32.1308C35.3246 32.3394 35.4067 32.5711 35.4406 32.812C35.4744 33.053 35.4594 33.2984 35.3964 33.5334C35.3335 33.7685 35.2238 33.9885 35.074 34.1802C34.9241 34.372 34.7372 34.5316 34.5244 34.6496C34.3115 34.7676 34.0771 34.8415 33.8351 34.8669C33.593 34.8923 33.3484 34.8687 33.1157 34.7976L26.1121 32.9222C25.8822 32.8606 25.6666 32.7542 25.4778 32.6092C25.289 32.4642 25.1306 32.2834 25.0116 32.0771C24.8927 31.8709 24.8155 31.6432 24.7846 31.4072C24.7537 31.1711 24.7695 30.9313 24.8313 30.7013Z" fill="white"/>
<path opacity="0.5" d="M39.6696 43.4396C39.1641 44.9862 38.2763 46.3802 37.0886 47.4923C35.3221 49.1477 32.596 49.8776 27.1465 51.3372C21.6969 52.7969 18.9709 53.5292 16.6146 52.9782C14.7529 52.544 13.0616 51.5676 11.7547 50.1724C10.0993 48.4058 9.36705 45.6798 7.90738 40.2302L6.65796 35.5612C5.19588 30.1117 4.46605 27.3857 5.01463 25.0294C5.44942 23.1674 6.42668 21.4761 7.8228 20.1695C9.58938 18.5141 12.3154 17.7842 17.765 16.3222C18.7929 16.045 19.7313 15.7961 20.5804 15.5754L19.9907 17.7649L18.7413 22.4339C17.2792 27.8835 16.5494 30.6071 17.098 32.9657C17.5328 34.8278 18.51 36.5191 19.9061 37.8257C21.6727 39.4811 24.3987 40.2109 29.8483 41.673C34.759 42.9877 37.4584 43.7127 39.6696 43.4396Z" fill="white"/>
</svg>
